<svg width="139" height="48" viewBox="0 0 139 48" fill="none" xmlns="http://www.w3.org/2000/svg">
<g clip-path="url(#clip0_574_2552)">
<path fill-rule="evenodd" clip-rule="evenodd" d="M38.029 12.273C38.029 8.25617 34.8002 5.00027 30.8165 5C26.8327 5.00027 23.603 8.25617 23.603 12.273C23.5995 14.1603 24.3291 15.9752 25.638 17.335L23.788 20.144L17.84 10.955C17.7362 10.7948 17.5927 10.6641 17.4234 10.5757C17.2542 10.4873 17.065 10.4442 16.8742 10.4505C16.6833 10.4569 16.4974 10.5125 16.3344 10.6119C16.1714 10.7113 16.0369 10.8512 15.944 11.018L5.59098 29.58H1.61098C0.997976 29.58 0.500977 30.08 0.500977 30.698C0.500977 31.316 0.997977 31.816 1.60998 31.816H38.406C38.4173 31.8162 38.4286 31.8162 38.44 31.816H43.052C43.665 31.816 44.162 31.316 44.162 30.698C44.162 30.08 43.665 29.58 43.052 29.58H39.072L33.258 19.118C34.6596 18.6046 35.8693 17.6724 36.7228 16.4478C37.5764 15.2232 38.0324 13.7657 38.029 12.273ZM29.895 29.58L25.107 22.183L29.072 16.162L36.529 29.58H29.895ZM16.98 13.72L27.247 29.58H8.13498L16.98 13.72ZM34.9174 15.3861C35.5899 14.4878 35.9519 13.3951 35.949 12.273C35.949 9.414 33.651 7.097 30.816 7.097C27.981 7.097 25.682 9.414 25.682 12.273C25.6797 13.4575 26.0835 14.6071 26.826 15.53L28.228 13.4C28.3327 13.2411 28.4767 13.1119 28.646 13.0249C28.8152 12.9379 29.0041 12.8959 29.1943 12.9032C29.3844 12.9104 29.5695 12.9666 29.7317 13.0662C29.8939 13.1658 30.0276 13.3056 30.12 13.472L32.221 17.253C33.2985 16.9397 34.2449 16.2845 34.9174 15.3861Z" fill="#B7B7B7"/>
<path d="M9.01297 36.29C9.01297 35.673 9.50897 35.173 10.12 35.173H34.541C35.152 35.173 35.648 35.673 35.648 36.29C35.648 36.906 35.152 37.406 34.54 37.406H10.12C9.50897 37.406 9.01297 36.907 9.01297 36.29Z" fill="#B7B7B7"/>
<path d="M17.523 41.882C17.523 41.264 18.02 40.763 18.633 40.763H26.028C26.641 40.763 27.138 41.264 27.138 41.882C27.138 42.5 26.641 43 26.029 43H18.633C18.02 43 17.523 42.499 17.523 41.882Z" fill="#B7B7B7"/>
<path fill-rule="evenodd" clip-rule="evenodd" d="M120.527 21.871C119.545 20.621 118.074 19.948 116.18 19.948C113.196 19.948 110.131 22.476 110.131 26.734C110.131 30.992 113.196 33.52 116.18 33.52C118.074 33.52 119.545 32.86 120.527 31.597V32.655C120.527 35.1 119.055 36.584 116.385 36.584C114.791 36.584 113.278 36.061 111.957 35.251L110.921 37.683C112.297 38.672 114.436 39.208 116.385 39.208C120.745 39.208 123.388 36.667 123.388 32.531V20.291H120.527V21.871ZM113.06 26.734C113.06 24.509 114.504 22.654 116.915 22.654C119.218 22.654 120.772 24.427 120.772 26.734C120.772 29.042 119.218 30.814 116.915 30.814C114.504 30.814 113.06 28.947 113.06 26.734Z" fill="#B7B7B7"/>
<path fill-rule="evenodd" clip-rule="evenodd" d="M104.841 21.885C103.942 20.717 102.593 19.948 100.74 19.948C97.09 19.948 94.214 22.846 94.214 26.871C94.214 30.896 97.089 33.795 100.74 33.795C102.594 33.795 103.942 33.04 104.841 31.872V33.452H107.689V20.292H104.841V21.885ZM97.143 26.871C97.143 24.564 98.629 22.654 101.081 22.654C103.438 22.654 105.019 24.467 105.019 26.871C105.019 29.275 103.438 31.089 101.081 31.089C98.629 31.089 97.143 29.179 97.143 26.871Z" fill="#B7B7B7"/>
<path fill-rule="evenodd" clip-rule="evenodd" d="M138.5 26.858C138.487 22.751 135.98 19.948 132.328 19.948C128.486 19.948 125.829 22.751 125.829 26.872C125.829 31.048 128.595 33.796 132.505 33.796C134.481 33.796 136.279 33.316 137.873 31.942L136.456 29.894C135.38 30.759 133.99 31.282 132.682 31.282C130.829 31.282 129.181 30.292 128.799 27.929H138.446C138.473 27.6 138.5 27.229 138.5 26.858ZM128.813 25.745C129.113 23.822 130.243 22.503 132.273 22.503C134.086 22.503 135.271 23.698 135.584 25.745H128.813Z" fill="#B7B7B7"/>
<path d="M64.8325 27.9558L59.287 14.2191H54.559V33.4521H57.639V17.7771L63.21 31.5701H66.453L72.026 17.6261V33.4521H75.106V14.2191H70.377L64.8325 27.9558Z" fill="#B7B7B7"/>
<path d="M81.704 20.2921V33.4521H78.843V20.2921H81.704Z" fill="#B7B7B7"/>
<path d="M93.886 20.3191C93.8859 20.319 93.886 20.3191 93.886 20.3191V20.3191Z" fill="#B7B7B7"/>
<path d="M91.692 19.9491C92.5639 19.9491 93.232 20.0581 93.886 20.3191L93.204 23.1611C92.605 22.8451 91.733 22.6801 91.038 22.6801C89.226 22.6801 87.932 23.9721 87.932 26.2101V33.4501H85.084V20.2901H87.904V21.7751C88.762 20.5251 90.098 19.9491 91.692 19.9491Z" fill="#B7B7B7"/>
<path d="M80.259 13.7111C81.39 13.7111 82.276 14.6041 82.276 15.7441C82.276 16.8841 81.39 17.7501 80.259 17.7501C79.129 17.7501 78.269 16.8841 78.269 15.7441C78.269 14.6041 79.129 13.7111 80.259 13.7111Z" fill="#B7B7B7"/>
</g>
<defs>
<clipPath id="clip0_574_2552">
<rect width="138" height="48" fill="white" transform="translate(0.5)"/>
</clipPath>
</defs>
</svg>
