<svg width="128" height="48" viewBox="0 0 128 48" fill="none" xmlns="http://www.w3.org/2000/svg">
<g clip-path="url(#clip0_574_2554)">
<path d="M3.81 28.903L18.56 13.087L15.249 10L0.5 25.816L3.81 28.903ZM6.292 39L21.04 23.184L17.73 20.097L2.982 35.913L6.292 39ZM37.553 20.784C37.1683 20.3029 36.6742 19.9207 36.112 19.669C35.518 19.393 34.946 19.255 34.394 19.255C34.11 19.255 33.822 19.28 33.53 19.33C33.237 19.38 32.974 19.477 32.74 19.619C32.506 19.761 32.31 19.945 32.15 20.17C31.992 20.396 31.913 20.684 31.913 21.035C31.913 21.335 31.975 21.587 32.101 21.787C32.226 21.987 32.41 22.163 32.652 22.314C32.894 22.464 33.182 22.602 33.517 22.727C33.851 22.853 34.227 22.982 34.645 23.116C35.247 23.316 35.874 23.538 36.525 23.78C37.1618 24.0141 37.7613 24.3391 38.305 24.745C38.84 25.146 39.283 25.644 39.634 26.237C39.984 26.83 40.16 27.57 40.16 28.456C40.16 29.475 39.972 30.356 39.596 31.1C39.2381 31.8221 38.7195 32.4526 38.08 32.943C37.4273 33.4364 36.6874 33.8022 35.899 34.021C35.0755 34.2553 34.2232 34.3731 33.367 34.371C32.097 34.371 30.868 34.151 29.682 33.708C28.495 33.265 27.509 32.634 26.723 31.815L29.531 28.957C29.966 29.492 30.538 29.939 31.248 30.298C31.958 30.658 32.665 30.838 33.367 30.838C33.684 30.838 33.993 30.804 34.294 30.737C34.595 30.67 34.858 30.561 35.084 30.411C35.309 30.261 35.489 30.06 35.623 29.809C35.757 29.559 35.823 29.258 35.823 28.907C35.823 28.573 35.74 28.288 35.573 28.054C35.3791 27.796 35.1361 27.5788 34.858 27.415C34.4942 27.1978 34.1075 27.0214 33.705 26.889C33.245 26.73 32.723 26.559 32.138 26.375C31.5698 26.1911 31.0131 25.9734 30.471 25.723C29.9387 25.4796 29.4481 25.1539 29.017 24.758C28.5829 24.3542 28.2335 23.8681 27.989 23.328C27.73 22.769 27.601 22.088 27.601 21.286C27.601 20.3 27.801 19.456 28.202 18.754C28.5911 18.0653 29.1313 17.4738 29.782 17.024C30.4521 16.5646 31.1993 16.2293 31.988 16.034C32.7989 15.8259 33.6328 15.7204 34.47 15.72C35.472 15.72 36.496 15.904 37.54 16.272C38.585 16.64 39.5 17.182 40.286 17.902L37.553 20.784ZM47.23 24.52V29.283C47.23 29.868 47.343 30.306 47.568 30.599C47.794 30.891 48.199 31.038 48.784 31.038C48.984 31.038 49.198 31.021 49.424 30.988C49.6175 30.9633 49.8069 30.9129 49.987 30.838L50.037 33.845C49.754 33.945 49.394 34.033 48.96 34.109C48.5293 34.1836 48.0931 34.2211 47.656 34.221C46.82 34.221 46.118 34.117 45.55 33.908C44.982 33.699 44.527 33.398 44.184 33.006C43.8343 32.6 43.5812 32.12 43.444 31.602C43.2874 31.0089 43.2117 30.3974 43.219 29.784V24.52H41.213V21.436H43.193V18.152H47.23V21.436H50.163V24.52H47.23ZM59.464 28.48H58.937C58.486 28.48 58.031 28.501 57.571 28.543C57.111 28.585 56.701 28.665 56.343 28.781C56.0109 28.882 55.7065 29.0579 55.453 29.295C55.219 29.521 55.102 29.818 55.102 30.185C55.102 30.419 55.156 30.62 55.265 30.787C55.373 30.954 55.511 31.087 55.678 31.188C55.845 31.288 56.038 31.359 56.255 31.401C56.472 31.443 56.681 31.464 56.882 31.464C57.717 31.464 58.356 31.234 58.799 30.774C59.242 30.314 59.464 29.692 59.464 28.907V28.481V28.48ZM51.918 23.14C52.6536 22.4381 53.5295 21.9 54.488 21.561C55.4483 21.2133 56.4617 21.0353 57.483 21.035C58.536 21.035 59.426 21.165 60.153 21.424C60.88 21.683 61.469 22.084 61.92 22.627C62.372 23.17 62.702 23.855 62.91 24.683C63.12 25.51 63.224 26.492 63.224 27.628V33.921H59.464V32.592H59.388C59.071 33.11 58.59 33.512 57.947 33.795C57.287 34.0824 56.5738 34.2276 55.854 34.221C55.3294 34.2183 54.8072 34.1511 54.299 34.021C53.7756 33.8921 53.2792 33.6714 52.833 33.369C52.3811 33.0581 52.0079 32.6462 51.743 32.166C51.458 31.664 51.316 31.046 51.316 30.311C51.316 29.408 51.563 28.681 52.056 28.13C52.549 27.578 53.184 27.152 53.961 26.851C54.738 26.551 55.603 26.35 56.556 26.25C57.508 26.15 58.436 26.099 59.338 26.099V25.899C59.338 25.28 59.121 24.825 58.687 24.532C58.252 24.24 57.717 24.093 57.082 24.093C56.497 24.093 55.933 24.219 55.39 24.47C54.8823 24.6972 54.4128 25.0014 53.998 25.372L51.918 23.141V23.14ZM70.606 24.52V29.283C70.606 29.868 70.718 30.306 70.944 30.599C71.169 30.891 71.574 31.038 72.16 31.038C72.36 31.038 72.573 31.021 72.799 30.988C73.025 30.954 73.213 30.904 73.363 30.838L73.413 33.845C73.129 33.945 72.77 34.033 72.335 34.109C71.9047 34.1836 71.4687 34.221 71.032 34.221C70.196 34.221 69.494 34.117 68.926 33.908C68.358 33.699 67.902 33.398 67.56 33.006C67.2102 32.6001 66.9571 32.12 66.82 31.602C66.6631 31.009 66.5871 30.3974 66.594 29.784V24.52H64.59V21.436H66.57V18.152H70.607V21.436H73.54V24.52H70.607H70.606ZM79.931 17.45C79.931 17.768 79.868 18.064 79.743 18.34C79.6233 18.6082 79.4532 18.8509 79.242 19.055C78.7889 19.4756 78.1932 19.7086 77.575 19.707C76.906 19.707 76.346 19.485 75.895 19.042C75.6781 18.8379 75.506 18.5911 75.3895 18.317C75.2729 18.043 75.2146 17.7478 75.218 17.45C75.218 17.15 75.277 16.861 75.394 16.585C75.511 16.31 75.678 16.071 75.895 15.871C76.112 15.671 76.363 15.507 76.647 15.382C76.931 15.257 77.24 15.194 77.575 15.194C77.892 15.194 78.197 15.252 78.49 15.369C78.782 15.486 79.033 15.645 79.242 15.846C79.451 16.046 79.618 16.285 79.743 16.56C79.869 16.836 79.931 17.133 79.931 17.45ZM75.52 33.92V21.437H79.631V33.922H75.52V33.92ZM90.793 25.472C90.5391 25.1559 90.212 24.9063 89.84 24.745C89.4555 24.5652 89.0365 24.4713 88.612 24.47C88.177 24.47 87.784 24.557 87.433 24.733C87.0882 24.9039 86.7814 25.1427 86.531 25.435C86.281 25.727 86.084 26.065 85.941 26.45C85.7977 26.8434 85.7259 27.2593 85.729 27.678C85.729 28.113 85.796 28.522 85.929 28.907C86.0569 29.2809 86.2574 29.6258 86.519 29.922C86.777 30.215 87.087 30.444 87.446 30.612C87.806 30.779 88.211 30.862 88.662 30.862C89.08 30.862 89.493 30.782 89.902 30.624C90.312 30.465 90.642 30.235 90.892 29.934L93.174 32.717C92.656 33.219 91.988 33.611 91.169 33.895C90.3298 34.1828 89.4481 34.3272 88.561 34.322C87.623 34.3296 86.6905 34.1767 85.804 33.87C84.9822 33.5875 84.227 33.1396 83.585 32.554C82.9512 31.9673 82.4473 31.2543 82.106 30.461C81.746 29.642 81.567 28.715 81.567 27.678C81.567 26.658 81.747 25.74 82.107 24.921C82.4481 24.1278 82.9515 23.4148 83.585 22.828C84.2284 22.2409 84.9829 21.7886 85.804 21.498C87.1093 21.0322 88.5137 20.9157 89.878 21.16C90.321 21.244 90.747 21.357 91.156 21.499C91.566 21.641 91.942 21.816 92.284 22.025C92.627 22.235 92.924 22.464 93.174 22.715L90.793 25.472ZM105.884 33.921L99.291 25.748H99.241V33.921H95.029V16.17H99.241V23.39H99.316L105.659 16.17H111.023L103.377 24.343L111.475 33.92H105.884V33.921ZM117.09 17.451C117.09 17.768 117.028 18.064 116.902 18.341C116.782 18.6089 116.612 18.8513 116.401 19.055C115.948 19.4752 115.352 19.7082 114.734 19.707C114.065 19.707 113.505 19.485 113.054 19.042C112.837 18.8379 112.665 18.591 112.549 18.317C112.432 18.043 112.374 17.7478 112.377 17.45C112.377 17.15 112.436 16.861 112.553 16.585C112.67 16.31 112.837 16.071 113.054 15.871C113.271 15.671 113.522 15.507 113.806 15.382C114.09 15.257 114.399 15.194 114.734 15.194C115.352 15.1928 115.948 15.4258 116.401 15.846C116.61 16.046 116.777 16.285 116.902 16.56C117.028 16.836 117.09 17.133 117.09 17.45V17.451ZM112.678 33.921V21.436H116.789V33.921H112.678ZM124.511 24.52V29.283C124.511 29.868 124.623 30.306 124.849 30.599C125.075 30.891 125.48 31.038 126.065 31.038C126.265 31.038 126.479 31.021 126.704 30.988C126.898 30.9635 127.088 30.9131 127.268 30.838L127.318 33.845C127.034 33.945 126.675 34.033 126.24 34.109C125.81 34.1836 125.374 34.2211 124.937 34.221C124.101 34.221 123.399 34.117 122.831 33.908C122.263 33.699 121.807 33.398 121.465 33.006C121.115 32.6 120.862 32.1199 120.725 31.602C120.569 31.0089 120.493 30.3974 120.5 29.784V24.52H118.494V21.436H120.475V18.152H124.511V21.436H127.444V24.52H124.511Z" fill="#B7B7B7"/>
</g>
<defs>
<clipPath id="clip0_574_2554">
<rect width="127" height="48" fill="white" transform="translate(0.5)"/>
</clipPath>
</defs>
</svg>
