<svg width="105" height="48" viewBox="0 0 105 48" fill="none" xmlns="http://www.w3.org/2000/svg">
<path fill-rule="evenodd" clip-rule="evenodd" d="M0 10L18 4V13.5L24 11.5V43L6 37V31.5L0 29.5V10ZM18 35.5L8 32.167V35.56L22 40.225V14.275L18 15.608V35.5Z" fill="#B7B7B7"/>
<path d="M42.9 31V20.451H39.39V17.058H50.876V20.45H47.346V31H42.9Z" fill="#B7B7B7"/>
<path d="M59.481 31.254C55.405 31.254 53.105 29.226 53.105 25.248V17.058H57.511V25.073C57.511 26.886 57.901 27.783 59.481 27.783C61.041 27.783 61.431 26.886 61.431 25.053V17.058H65.877V25.209C65.877 29.401 63.381 31.254 59.481 31.254Z" fill="#B7B7B7"/>
<path fill-rule="evenodd" clip-rule="evenodd" d="M68.965 31V17.058H74.523C78.54 17.058 80.256 18.852 80.256 21.835V21.913C80.256 24.819 78.326 26.457 74.718 26.457H73.372V31H68.965ZM74.288 23.493H73.372V20.353H74.308C75.458 20.353 76.063 20.783 76.063 21.855V21.933C76.063 22.966 75.458 23.493 74.288 23.493Z" fill="#B7B7B7"/>
<path d="M82.563 17.058V31H92.06V27.588H86.99V17.058H82.563Z" fill="#B7B7B7"/>
<path d="M94.562 31V17.058H104.468V20.451H98.969V22.421H103.337V25.521H98.969V27.607H104.78V31H94.562Z" fill="#B7B7B7"/>
</svg>
