<svg width="136" height="48" viewBox="0 0 136 48" fill="none" xmlns="http://www.w3.org/2000/svg">
<path fill-rule="evenodd" clip-rule="evenodd" d="M38.4576 13.0241L38.4594 13.028C38.4609 13.0312 38.4624 13.0344 38.4637 13.0375C38.4651 13.041 38.4663 13.0445 38.467 13.0481C38.4812 13.1016 38.4886 13.1567 38.489 13.2121V21.7981C38.4892 21.9079 38.4605 22.0158 38.4059 22.111C38.3514 22.2063 38.2728 22.2856 38.178 22.3411L31.04 26.4911V34.7141C31.0401 34.8239 31.0113 34.9319 30.9565 35.0272C30.9018 35.1225 30.823 35.2018 30.728 35.2571L15.829 43.9171C15.7947 43.9356 15.7585 43.9504 15.721 43.9611C15.7163 43.9631 15.7118 43.9653 15.7072 43.9675C15.6981 43.9719 15.689 43.9764 15.679 43.9791C15.5749 44.0071 15.4651 44.0071 15.361 43.9791C15.3541 43.9771 15.3473 43.9746 15.3408 43.9717L15.333 43.9681L15.313 43.9581L15.3021 43.9543C15.2708 43.9437 15.2396 43.9331 15.21 43.9161L0.311002 35.2571C0.216219 35.2016 0.137623 35.1223 0.0830536 35.027C0.0284841 34.9318 -0.000151817 34.8239 6.05316e-07 34.7141V8.95605C0.000386108 8.90107 0.0074376 8.84634 0.0210018 8.79305C0.0241348 8.78313 0.0283584 8.77403 0.0325337 8.76503C0.0363514 8.75681 0.0401371 8.74865 0.0430018 8.74005L0.0630018 8.68705C0.0685774 8.67192 0.0752622 8.65721 0.0830018 8.64305C0.0903992 8.63072 0.0996966 8.61954 0.10902 8.60832C0.11482 8.60134 0.120633 8.59434 0.126002 8.58705C0.130945 8.58019 0.135662 8.57325 0.14036 8.56633C0.152769 8.54807 0.165044 8.53001 0.181002 8.51405C0.192514 8.50254 0.205662 8.49308 0.218876 8.48356C0.226323 8.4782 0.233794 8.47282 0.241002 8.46705C0.248029 8.46156 0.25487 8.45587 0.261694 8.4502C0.277208 8.4373 0.29264 8.42447 0.310002 8.41405L7.76 4.08405C7.85412 4.02924 7.96109 4.00037 8.07 4.00037C8.17892 4.00037 8.28588 4.02924 8.38 4.08405L15.83 8.41405C15.8474 8.42447 15.8628 8.4373 15.8783 8.45019C15.8851 8.45586 15.892 8.46156 15.899 8.46705L15.92 8.48305C15.934 8.49305 15.948 8.50306 15.96 8.51405C15.9749 8.52977 15.9883 8.54684 16 8.56505L16.015 8.58705C16.0204 8.59493 16.0265 8.60229 16.0326 8.6097C16.0412 8.62016 16.05 8.63077 16.057 8.64305C16.0714 8.66841 16.0815 8.69663 16.0915 8.72468L16.097 8.74005L16.107 8.76205L16.119 8.79205C16.133 8.84559 16.1401 8.90071 16.14 8.95605V25.0441L22.348 21.4361V13.2121C22.3483 13.157 22.3557 13.1022 22.37 13.0491C22.3728 13.0383 22.3772 13.0286 22.3816 13.0189C22.385 13.0114 22.3884 13.0039 22.391 12.9961L22.398 12.9761C22.4067 12.9495 22.4177 12.9237 22.431 12.8991C22.4387 12.8864 22.4474 12.8743 22.457 12.8631C22.4629 12.8566 22.4685 12.8499 22.474 12.8431L22.4876 12.8236C22.5006 12.8049 22.5134 12.7864 22.529 12.7701C22.5365 12.7626 22.544 12.7567 22.5515 12.7509L22.559 12.7451L22.5658 12.7403C22.5738 12.7349 22.582 12.7292 22.589 12.7231L22.625 12.6931C22.6354 12.6846 22.6464 12.6769 22.658 12.6701L30.108 8.34005C30.2021 8.28524 30.3091 8.25637 30.418 8.25637C30.5269 8.25637 30.6339 8.28524 30.728 8.34005L38.178 12.6701C38.1944 12.6795 38.2083 12.6913 38.2222 12.703C38.2303 12.7099 38.2385 12.7167 38.247 12.7231L38.269 12.7391L38.2764 12.7447C38.2872 12.7528 38.2981 12.7611 38.307 12.7701C38.322 12.786 38.3354 12.8034 38.347 12.8221L38.363 12.8431C38.3681 12.8499 38.3735 12.8565 38.379 12.8631C38.389 12.8751 38.398 12.8861 38.405 12.8991C38.4185 12.9247 38.4299 12.9515 38.439 12.9791L38.445 12.9961L38.455 13.0181L38.4576 13.0241ZM9.322 30.4531L15.518 33.9931L29.17 26.1261L22.969 22.5211L9.322 30.4531ZM29.798 25.0441V17.9041L23.59 14.2971V21.4371L29.798 25.0441ZM36.624 13.2131L30.418 9.60605L24.213 13.2131L30.418 16.8191L36.624 13.2131ZM8.691 13.6481V29.3741L14.899 25.7651V10.0401L8.69 13.6481H8.691ZM14.275 8.95605L8.07 5.35005L1.864 8.95605L8.07 12.5631L14.275 8.95605ZM7.449 13.6501L1.241 10.0401V34.3501L14.9 42.2901V35.0801L7.765 31.0041L7.763 31.0031L7.759 31.0001C7.74114 30.9893 7.72584 30.9761 7.71053 30.9628L7.70069 30.9543L7.692 30.9471C7.68481 30.9418 7.67748 30.9368 7.67 30.9321C7.65681 30.9232 7.64443 30.9131 7.633 30.9021L7.631 30.9001C7.61993 30.889 7.6103 30.8757 7.60089 30.8628L7.596 30.8561C7.59083 30.8486 7.58549 30.8413 7.58 30.8341L7.55 30.7961C7.54412 30.7888 7.53878 30.7811 7.534 30.7731L7.533 30.7711C7.52331 30.754 7.51559 30.7359 7.51 30.7171L7.5 30.6931L7.485 30.6601C7.47925 30.6478 7.47456 30.6351 7.471 30.6221C7.46565 30.6001 7.4623 30.5766 7.461 30.5541L7.458 30.5291L7.45624 30.5164L7.454 30.5031L7.45258 30.4937C7.45083 30.4825 7.449 30.4708 7.449 30.4591V13.6501ZM16.14 42.2901L29.797 34.3531V27.2091L16.14 35.0791V42.2901ZM31.04 25.0431L37.248 21.4351V14.2951L31.04 17.9041V25.0431Z" fill="#B7B7B7"/>
<path d="M132.739 13.214H136V34.36H132.739V13.214Z" fill="#B7B7B7"/>
<path d="M48.393 13.215H51.834V31.249H58.297V34.36H48.393V13.215Z" fill="#B7B7B7"/>
<path fill-rule="evenodd" clip-rule="evenodd" d="M70.446 22.186C70.006 21.481 69.384 20.928 68.576 20.525C67.767 20.122 66.955 19.92 66.137 19.92C65.079 19.92 64.112 20.117 63.235 20.51C62.3784 20.8874 61.609 21.4375 60.975 22.126C60.3423 22.8177 59.8451 23.622 59.509 24.497C59.159 25.393 58.985 26.335 58.985 27.321C58.9782 28.2924 59.156 29.2561 59.509 30.161C59.8471 31.0304 60.3439 31.8293 60.974 32.517C61.6079 33.2057 62.3773 33.7559 63.234 34.133C64.112 34.526 65.079 34.722 66.136 34.722C66.955 34.722 67.768 34.521 68.576 34.118C69.384 33.716 70.007 33.162 70.446 32.457V34.36H73.707V20.283H70.446V22.186ZM70.147 29.043C69.9603 29.5653 69.6759 30.0472 69.309 30.463C68.9447 30.8699 68.5018 31.1989 68.007 31.43C67.498 31.672 66.934 31.792 66.316 31.792C65.737 31.8009 65.1637 31.6771 64.64 31.43C64.142 31.188 63.714 30.866 63.354 30.463C62.9883 30.0489 62.7085 29.5662 62.531 29.043C62.341 28.5 62.247 27.926 62.247 27.322C62.2437 26.7361 62.3397 26.1539 62.531 25.6C62.72 25.056 62.994 24.583 63.354 24.18C63.7147 23.776 64.1517 23.4474 64.64 23.213C65.139 22.971 65.697 22.851 66.317 22.851C66.9003 22.8435 67.4779 22.9672 68.007 23.213C68.5017 23.4445 68.9445 23.7734 69.309 24.18C69.6758 24.596 69.9602 25.0779 70.147 25.6C70.346 26.143 70.447 26.717 70.447 27.322C70.449 27.9089 70.3475 28.4915 70.147 29.043Z" fill="#B7B7B7"/>
<path fill-rule="evenodd" clip-rule="evenodd" d="M95.088 20.525C95.895 20.928 96.518 21.481 96.958 22.186V20.283H100.219V34.36H96.958V32.458C96.518 33.162 95.896 33.716 95.088 34.118C94.279 34.521 93.467 34.723 92.649 34.723C91.591 34.723 90.624 34.526 89.747 34.133C88.8903 33.756 88.1208 33.2058 87.487 32.517C86.8566 31.8297 86.3595 31.0311 86.021 30.162C85.671 29.275 85.497 28.329 85.497 27.322C85.4931 26.3559 85.6709 25.3976 86.021 24.497C86.3567 23.622 86.8537 22.8178 87.486 22.126C88.12 21.4375 88.8894 20.8874 89.746 20.51C90.624 20.117 91.591 19.921 92.648 19.921C93.467 19.921 94.28 20.122 95.088 20.525ZM95.82 30.463C96.1869 30.0472 96.4713 29.5653 96.658 29.043C96.858 28.5 96.958 27.926 96.958 27.322C96.958 26.717 96.857 26.143 96.659 25.6C96.459 25.056 96.18 24.583 95.82 24.18C95.461 23.778 95.028 23.455 94.518 23.213C94.01 22.971 93.446 22.851 92.828 22.851C92.249 22.8422 91.6757 22.966 91.152 23.213C90.6637 23.4473 90.2266 23.776 89.866 24.18C89.4998 24.5938 89.22 25.0766 89.043 25.6C88.853 26.143 88.758 26.717 88.758 27.322C88.755 27.9077 88.8514 28.4896 89.043 29.043C89.2203 29.5664 89.5 30.0491 89.866 30.463C90.2265 30.8673 90.6636 31.1959 91.152 31.43C91.651 31.672 92.21 31.792 92.828 31.792C93.4117 31.7997 93.9896 31.676 94.519 31.43C95.0134 31.1988 95.456 30.8698 95.82 30.463Z" fill="#B7B7B7"/>
<path d="M76.281 34.36H79.543V23.523H85.139V20.283H76.28L76.281 34.36Z" fill="#B7B7B7"/>
<path d="M109.197 31.063L113.296 20.283H116.6L111.246 34.36H107.147L101.794 20.283H105.097L109.197 31.063Z" fill="#B7B7B7"/>
<path fill-rule="evenodd" clip-rule="evenodd" d="M116.558 27.321C116.558 23.235 119.72 19.921 123.714 19.921C128.155 19.921 131.183 23.895 130.615 28.545H119.794C119.794 29.759 121.009 32.107 123.893 32.107C126.32 32.107 127.963 29.9986 128.036 29.9061C128.037 29.9041 128.038 29.903 128.038 29.903L130.241 31.624C128.271 33.747 126.658 34.722 124.132 34.722C119.618 34.722 116.558 31.84 116.558 27.321ZM123.688 22.536C120.204 22.536 119.828 25.828 119.803 26.098H127.619C127.595 25.827 127.172 22.536 123.688 22.536Z" fill="#B7B7B7"/>
</svg>
