<svg width="147" height="48" viewBox="0 0 147 48" fill="none" xmlns="http://www.w3.org/2000/svg">
<g clip-path="url(#clip0_574_2557)">
<path fill-rule="evenodd" clip-rule="evenodd" d="M29.2774 33.6769C29.2774 36.1199 28.4274 37.1189 26.1124 37.1189H5.57037C3.25437 37.1189 2.40537 36.1199 2.40537 33.6769V28.9199C2.40537 26.6259 1.30037 25.3299 0.238373 24.7359C0.165311 24.6916 0.104901 24.6293 0.0629752 24.5548C0.0210494 24.4804 -0.000976563 24.3964 -0.000976562 24.3109C-0.000976563 24.2255 0.0210494 24.1415 0.0629752 24.0671C0.104901 23.9926 0.165311 23.9302 0.238373 23.8859C1.34337 23.1849 2.40537 21.7189 2.40537 19.7649V15.0899C2.40537 12.4559 3.12737 11.6899 5.44237 11.6899H26.2404C28.5564 11.6899 29.2784 12.4559 29.2784 15.0899V19.7629C29.2784 21.7169 30.3404 23.1829 31.4444 23.8829C31.7644 24.0959 31.7644 24.5429 31.4444 24.7329C30.3824 25.3489 29.2784 26.6449 29.2784 28.9179V33.6759L29.2774 33.6769ZM9.81937 30.5549C11.4974 32.0199 13.3034 32.7639 15.7894 32.7639C19.6974 32.7639 22.2464 30.8099 22.2464 27.6439C22.2464 24.2919 19.2104 23.4369 16.7414 22.7419C15.0484 22.2649 13.6214 21.8629 13.6214 20.7829C13.6214 20.0829 14.3654 19.4029 15.6184 19.4029C16.8294 19.4029 17.8284 19.6579 18.7834 20.1459C19.1024 20.2949 19.3994 20.4009 19.6754 20.4009C20.0794 20.4009 20.3984 20.2099 20.6744 19.8279L21.0564 19.2539C21.2054 19.0419 21.2694 18.8079 21.2694 18.5539C21.2694 18.1279 21.0564 17.7039 20.7384 17.4909C19.4634 16.6839 17.7424 16.0039 15.4064 16.0039C12.0924 16.0039 9.54337 17.7459 9.54337 20.8679C9.54337 24.3589 12.6454 25.2449 15.1294 25.9529C16.7864 26.4259 18.1674 26.8199 18.1674 27.8569C18.1674 28.8549 17.2334 29.3439 16.0644 29.3439C14.6607 29.3573 13.2851 28.9505 12.1144 28.1759C11.7524 27.9419 11.4124 27.7929 11.0514 27.7929C10.7324 27.7929 10.4564 27.9419 10.2014 28.2609L9.69137 28.9189C9.50137 29.1319 9.43737 29.4079 9.43737 29.6629C9.43737 29.9809 9.54337 30.2999 9.81937 30.5549ZM41.5554 28.5999C41.2794 28.5999 41.0454 28.7069 40.8334 28.9829L40.4084 29.5779C40.2384 29.7679 40.1954 30.0019 40.1954 30.2149C40.1954 30.4909 40.3014 30.7669 40.5354 30.9799C41.9374 32.1899 43.4674 32.8279 45.5704 32.8279C48.8624 32.8279 51.0294 31.1709 51.0294 28.5149C51.0294 25.6909 48.4614 24.9699 46.3754 24.3839C44.9464 23.9819 43.7434 23.6439 43.7434 22.7379C43.7434 22.1219 44.3804 21.5689 45.4214 21.5689C46.3447 21.5657 47.2553 21.7845 48.0764 22.2069L48.1404 22.2309C48.3924 22.3289 48.6254 22.4189 48.8404 22.4189C49.1604 22.4189 49.4364 22.2699 49.6704 21.9299L50.0104 21.4419C50.1251 21.2572 50.1842 21.0434 50.1804 20.8259C50.1804 20.4649 50.0104 20.1039 49.7334 19.9339C48.6504 19.2109 47.2054 18.6589 45.2304 18.6589C42.4474 18.6589 40.2804 20.1459 40.2804 22.7799C40.2804 25.7069 42.8954 26.4539 44.9924 27.0519C46.3954 27.4519 47.5664 27.7869 47.5664 28.6639C47.5664 29.5349 46.7804 29.9389 45.7824 29.9389C44.4864 29.9389 43.4024 29.5779 42.4474 28.9399C42.1714 28.7279 41.8314 28.5999 41.5554 28.5999ZM61.8414 30.8949C61.8448 30.7137 61.7928 30.5358 61.6924 30.3849L61.4164 29.9389C61.1614 29.4929 60.8644 29.3229 60.4814 29.3229C60.2914 29.3229 60.0784 29.3649 59.8014 29.4709C59.5264 29.5779 59.2074 29.6199 58.8464 29.6199C57.7204 29.6199 57.2314 28.6429 57.2314 27.1769V22.2499H60.4814C61.0974 22.2499 61.6074 21.7399 61.6074 21.1239V20.1039C61.6074 19.4889 61.0974 18.9789 60.4814 18.9789H57.2314V16.3449C57.2314 15.7289 56.7214 15.2189 56.1064 15.2189H54.8954C54.2794 15.2189 53.7694 15.7289 53.7694 16.3449V27.3049C53.7694 30.7679 54.9164 32.7439 57.9544 32.7439C59.2924 32.7439 60.3124 32.4679 61.3314 31.8509C61.6714 31.6809 61.8414 31.2779 61.8414 30.8959V30.8949ZM68.7234 24.1399C65.9834 24.1399 63.7954 25.5419 63.7954 28.5149C63.7954 31.1279 65.5584 32.6579 67.9594 32.6789C69.7854 32.6789 71.2294 31.9779 71.9524 30.9589V31.4039C71.9524 32.0199 72.4624 32.5299 73.0784 32.5299H73.8644C74.4804 32.5299 74.9904 32.0199 74.9904 31.4039V24.3099C74.9904 20.7419 73.6094 18.7029 69.6164 18.7029C68.2354 18.7029 66.8964 19.0629 65.7284 19.5949C65.3684 19.7649 65.0914 20.1679 65.0914 20.5509C65.0965 20.6733 65.1243 20.7937 65.1734 20.9059C65.1894 20.9509 65.2064 20.9959 65.2184 21.0389L65.3884 21.3999C65.6014 21.8249 65.9624 22.0379 66.4084 22.0379C66.5424 22.0379 66.6894 21.9979 66.8294 21.9599L66.9394 21.9309C67.5764 21.7189 68.2354 21.5709 69.2544 21.5709C71.1244 21.5709 71.7614 22.6319 71.7614 24.6079V25.0119C71.1024 24.5229 69.9134 24.1409 68.7234 24.1409V24.1399ZM69.4034 26.4549C70.3804 26.4549 71.1454 26.6669 71.7614 27.1139H71.7824V28.5149C71.3574 29.0889 70.6144 29.7259 69.1694 29.7259C68.0654 29.7259 67.2364 29.1529 67.2364 28.1329C67.2364 26.9859 68.2564 26.4549 69.4034 26.4549ZM86.3124 30.8949C86.3158 30.7137 86.2638 30.5358 86.1634 30.3849L85.8874 29.9389C85.6324 29.4929 85.3354 29.3229 84.9524 29.3229C84.7624 29.3229 84.5494 29.3649 84.2724 29.4709C83.9964 29.5779 83.6784 29.6199 83.3174 29.6199C82.1914 29.6199 81.7024 28.6429 81.7024 27.1769V22.2499H84.9524C85.5684 22.2499 86.0784 21.7399 86.0784 21.1239V20.1039C86.0784 19.4889 85.5684 18.9789 84.9524 18.9789H81.7024V16.3449C81.7024 15.7289 81.1924 15.2189 80.5764 15.2189H79.3664C78.7504 15.2189 78.2404 15.7289 78.2404 16.3449V27.3049C78.2404 30.7679 79.3874 32.7439 82.4244 32.7439C83.7634 32.7439 84.7824 32.4679 85.8024 31.8509C86.1424 31.6809 86.3124 31.2779 86.3124 30.8959V30.8949ZM93.1944 24.1399C90.4544 24.1399 88.2664 25.5419 88.2664 28.5149C88.2664 31.1279 90.0504 32.6579 92.4294 32.6789C94.2564 32.6789 95.7014 31.9779 96.4234 30.9589V31.4039C96.4234 32.0199 96.9334 32.5299 97.5494 32.5299H98.3354C98.9514 32.5299 99.4614 32.0199 99.4614 31.4039V24.3099C99.4614 20.7419 98.0804 18.7029 94.0864 18.7029C92.7064 18.7029 91.3674 19.0629 90.1994 19.5949C89.8384 19.7649 89.5624 20.1679 89.5624 20.5509C89.5675 20.6733 89.5953 20.7937 89.6444 20.9059C89.6604 20.9509 89.6774 20.9959 89.6894 21.0389L89.8594 21.3999C90.0724 21.8249 90.4334 22.0379 90.8794 22.0379C91.0134 22.0379 91.1604 21.9979 91.2994 21.9599L91.4094 21.9309C92.0474 21.7189 92.7064 21.5709 93.7254 21.5709C95.5954 21.5709 96.2324 22.6319 96.2324 24.6079V25.0119C95.5734 24.5229 94.3844 24.1409 93.1944 24.1409V24.1399ZM93.8744 26.4549C94.8514 26.4549 95.6164 26.6669 96.2324 27.1139H96.2534V28.5149C95.8284 29.0889 95.0854 29.7259 93.6404 29.7259C92.5364 29.7259 91.7074 29.1529 91.7074 28.1329C91.7074 26.9859 92.7274 26.4549 93.8744 26.4549ZM110.676 18.7449C109.019 18.7449 107.426 19.4029 106.47 20.4649H106.407V20.0819C106.407 19.4659 105.897 18.9559 105.281 18.9559H104.07C103.454 18.9559 102.944 19.4659 102.944 20.0819V31.3619C102.944 31.9779 103.454 32.4879 104.07 32.4879H105.281C105.897 32.4879 106.407 31.9779 106.407 31.3619V23.4169C107.023 22.5039 108.021 21.9729 109.232 21.9729C110.676 21.9729 111.462 22.8859 111.462 24.3099V31.3199C111.462 31.9349 111.972 32.4449 112.588 32.4449H113.799C114.415 32.4449 114.925 31.9349 114.925 31.3189V24.5009C114.925 24.3249 114.918 24.1049 114.913 23.9069C114.908 23.7449 114.903 23.5969 114.903 23.5019C115.371 22.5889 116.39 21.9519 117.686 21.9519C119.322 21.9519 120.002 22.8649 120.002 24.5429V31.3619C120.002 31.9779 120.511 32.4879 121.127 32.4879H122.338C122.954 32.4879 123.464 31.9779 123.464 31.3619V23.6719C123.464 19.9549 121.616 18.7439 119.152 18.7439C117.07 18.7439 115.562 19.6359 114.606 20.9109C114.118 19.6789 112.737 18.7439 110.676 18.7439V18.7449ZM129.284 16.2799C130.261 16.2799 131.26 15.4939 131.26 14.1129C131.26 12.9029 130.261 12.1169 129.284 12.1169C128.116 12.1169 127.118 12.9029 127.118 14.1129C127.118 15.4939 128.116 16.2799 129.284 16.2799ZM130.941 20.1039C130.941 19.4879 130.431 18.9779 129.815 18.9779V18.9559H128.605C127.989 18.9559 127.479 19.4659 127.479 20.0819V31.3619C127.479 31.9779 127.989 32.4879 128.605 32.4879H129.815C130.431 32.4879 130.941 31.9779 130.941 31.3619V20.1039ZM141.881 21.8879C142.752 21.8879 143.453 22.0369 144.26 22.4189C144.403 22.4989 144.558 22.5299 144.698 22.5589L144.833 22.5889C145.237 22.5889 145.619 22.3339 145.853 21.9519L146.299 21.1659C146.405 21.0169 146.427 20.8469 146.427 20.6769C146.427 20.2949 146.235 19.8489 145.896 19.6789C144.579 18.9559 143.262 18.6589 141.456 18.6589C137.335 18.6589 134.467 21.8029 134.467 25.7329C134.467 29.9809 137.42 32.8059 141.881 32.8059C143.559 32.8059 144.982 32.5089 146.597 31.2129C146.851 31.0219 147 30.6179 147 30.2569C147 30.0239 146.936 29.7899 146.788 29.6409L146.278 29.0039C146.166 28.8643 146.023 28.7518 145.862 28.6746C145.7 28.5974 145.523 28.5575 145.343 28.5579C145.11 28.5579 144.855 28.6429 144.621 28.7919C143.835 29.3019 143.07 29.5779 142.008 29.5779C139.969 29.5779 138.121 28.0909 138.121 25.7119C138.121 23.3539 139.948 21.8879 141.881 21.8879Z" fill="#B7B7B7"/>
</g>
<defs>
<clipPath id="clip0_574_2557">
<rect width="147" height="48" fill="white"/>
</clipPath>
</defs>
</svg>
