<svg width="68" height="70" viewBox="0 0 68 70" fill="none" xmlns="http://www.w3.org/2000/svg">
<g opacity="0.99" filter="url(#filter0_d_43_3)">
<path fill-rule="evenodd" clip-rule="evenodd" d="M13.432 58.4356L6.55327 49.8663C4.89826 47.8045 4 45.2692 4 42.6597V11.63C4 7.72128 7.12717 4.47794 11.1614 4.2025L43.0643 2.02437C45.382 1.86612 47.6856 2.48218 49.5895 3.76941L60.7985 11.3478C62.8049 12.7044 64 14.922 64 17.2885V52.5663C64 56.3915 60.9251 59.5586 56.9752 59.8017L21.5667 61.9813C18.4147 62.1754 15.368 60.8474 13.432 58.4356Z" fill="white"/>
<path d="M24.4963 27.1574V26.7512C24.4963 25.7214 25.3211 24.8673 26.384 24.7964L34.1267 24.2794L44.8342 40.047V26.2083L42.0781 25.8409V25.6479C42.0781 24.6061 42.9218 23.7464 43.9983 23.6912L51.0433 23.3303V24.3442C51.0433 24.8201 50.6894 25.2272 50.2043 25.3092L48.509 25.596V48.0074L46.3813 48.7391C44.6038 49.3504 42.6249 48.696 41.6073 47.1605L31.2122 31.4744V46.4459L34.4118 47.0583L34.3672 47.355C34.2276 48.2847 33.425 48.9877 32.4541 49.0309L24.4963 49.3851C24.3911 48.3855 25.1403 47.4911 26.1739 47.3825L27.2207 47.2726V27.3105L24.4963 27.1574Z" fill="black"/>
<path fill-rule="evenodd" clip-rule="evenodd" d="M43.3499 5.93356L11.4471 8.1117C9.5361 8.24217 8.05481 9.77849 8.05481 11.63V42.6598C8.05481 44.3994 8.65365 46.0896 9.75699 47.4641L16.6357 56.0334C17.7479 57.4189 19.4981 58.1818 21.3088 58.0703L56.7174 55.8907C58.5322 55.779 59.945 54.3239 59.945 52.5663V17.2885C59.945 16.2012 59.3959 15.1823 58.474 14.559L47.265 6.98059C46.1227 6.20825 44.7405 5.83862 43.3499 5.93356ZM13.0291 12.114C12.5853 11.7855 12.7965 11.1011 13.3539 11.0611L43.5645 8.89422C44.5271 8.82518 45.4835 9.09024 46.262 9.64176L52.3235 13.9363C52.5536 14.0993 52.4457 14.4513 52.1608 14.4668L20.1679 16.2067C19.1997 16.2594 18.244 15.9749 17.4741 15.405L13.0291 12.114ZM18.6673 21.6614C18.6673 20.6221 19.5069 19.7635 20.5807 19.7051L54.4062 17.8629C55.4527 17.8059 56.3336 18.6107 56.3336 19.6236V50.1705C56.3336 51.208 55.4969 52.0656 54.4253 52.1266L20.8139 54.0391C19.6493 54.1053 18.6673 53.2104 18.6673 52.083V21.6614Z" fill="black"/>
</g>
<defs>
<filter id="filter0_d_43_3" x="-2" y="0" width="72" height="72" filterUnits="userSpaceOnUse" color-interpolation-filters="sRGB">
<feFlood flood-opacity="0" result="BackgroundImageFix"/>
<feColorMatrix in="SourceAlpha" type="matrix" values="0 0 0 0 0 0 0 0 0 0 0 0 0 0 0 0 0 0 127 0" result="hardAlpha"/>
<feOffset dy="4"/>
<feGaussianBlur stdDeviation="2"/>
<feComposite in2="hardAlpha" operator="out"/>
<feColorMatrix type="matrix" values="0 0 0 0 0 0 0 0 0 0 0 0 0 0 0 0 0 0 0.25 0"/>
<feBlend mode="normal" in2="BackgroundImageFix" result="effect1_dropShadow_43_3"/>
<feBlend mode="normal" in="SourceGraphic" in2="effect1_dropShadow_43_3" result="shape"/>
</filter>
</defs>
</svg>
