<svg width="65" height="65" viewBox="0 0 65 65" fill="none" xmlns="http://www.w3.org/2000/svg">
<g opacity="0.78" clip-path="url(#clip0_50_198)">
<path d="M19.756 33.6609C11.956 39.4016 10.4226 47.7942 10.4226 54.7942C10.7782 52.7053 12.4093 47.8075 16.0893 44.9275C21.556 40.6493 31.5559 42.0587 42.4893 34.7942C53.4227 27.5297 54.4893 18.0609 53.0893 10.7942C52.1166 17.806 48.797 20.8618 44.2226 23.5942C34.2893 29.5275 28.0893 27.5275 19.756 33.6609Z" fill="url(#paint0_linear_50_198)"/>
<path d="M19.756 33.6609C11.956 39.4016 10.4226 47.7942 10.4226 54.7942C10.7782 52.7053 12.4093 47.8075 16.0893 44.9275C21.556 40.6493 31.5559 42.0587 42.4893 34.7942C53.4227 27.5297 54.4893 18.0609 53.0893 10.7942C52.1166 17.806 48.797 20.8618 44.2226 23.5942C34.2893 29.5275 28.0893 27.5275 19.756 33.6609Z" fill="url(#paint1_linear_50_198)"/>
<path d="M10.5159 51.9247C10.9439 45.5998 12.9976 38.6349 19.7559 33.6608C24.1003 30.4634 27.8648 29.4764 31.8808 28.4235C34.2244 27.809 36.6537 27.1721 39.3338 26.0603C38.356 26.9942 33.7097 29.1742 30.2051 30.6307C26.7096 32.0835 23.0244 33.6152 19.9559 35.6608C13.7996 39.7651 11.2963 46.9058 10.5159 51.9247Z" fill="url(#paint2_linear_50_198)"/>
<path d="M10.5159 51.9247C10.9439 45.5998 12.9976 38.6349 19.7559 33.6608C24.1003 30.4634 27.8648 29.4764 31.8808 28.4235C34.2244 27.809 36.6537 27.1721 39.3338 26.0603C38.356 26.9942 33.7097 29.1742 30.2051 30.6307C26.7096 32.0835 23.0244 33.6152 19.9559 35.6608C13.7996 39.7651 11.2963 46.9058 10.5159 51.9247Z" fill="url(#paint3_linear_50_198)"/>
<path d="M48.4581 29.6026C47.6914 30.3535 46.8367 31.0258 45.8894 31.5942C41.6227 34.1542 37.0876 34.9798 32.6747 35.7831C29.1583 36.4232 25.7195 37.0493 22.556 38.5275C15.4232 41.8606 11.0233 48.7933 10.4228 54.793C10.4228 54.7933 10.4227 54.7935 10.4227 54.7938C10.4227 54.7927 10.4226 54.7916 10.4226 54.7905C10.4226 54.3325 10.4292 53.8686 10.4437 53.3999C10.4801 52.6562 10.557 51.8322 10.6842 50.9534C11.6259 46.0192 14.187 39.5068 19.956 35.6608C22.3982 34.0327 25.231 32.7302 28.048 31.5339C30.5253 30.7205 32.758 30.2143 34.8852 29.7321C38.2337 28.9729 41.3209 28.273 44.6894 26.5275C51.7575 22.8649 53.6093 15.3384 53.1116 10.9111C54.1684 16.5209 53.7411 23.4207 48.4581 29.6026Z" fill="url(#paint4_linear_50_198)"/>
<path d="M48.4579 29.6028C47.6913 30.3536 46.8367 31.0258 45.8894 31.5942C41.6227 34.1542 37.0876 34.9798 32.6748 35.7831C29.1583 36.4233 25.7195 37.0493 22.556 38.5275C18.4539 40.4444 15.2557 43.5518 13.1642 46.9876C15.0096 44.3946 17.8209 41.4978 21.2893 40.3942C24.6738 39.3173 27.9021 39.2061 31.256 39.0904C32.2172 39.0573 33.1888 39.0238 34.1773 38.9671C36.8415 37.9973 39.6336 36.6916 42.4893 34.7942C44.9508 33.1587 46.9122 31.4115 48.4579 29.6028Z" fill="url(#paint5_linear_50_198)"/>
<path d="M48.4579 29.6028C47.6913 30.3536 46.8367 31.0258 45.8894 31.5942C41.6227 34.1542 37.0876 34.9798 32.6748 35.7831C29.1583 36.4233 25.7195 37.0493 22.556 38.5275C18.4539 40.4444 15.2557 43.5518 13.1642 46.9876C15.0096 44.3946 17.8209 41.4978 21.2893 40.3942C24.6738 39.3173 27.9021 39.2061 31.256 39.0904C32.2172 39.0573 33.1888 39.0238 34.1773 38.9671C36.8415 37.9973 39.6336 36.6916 42.4893 34.7942C44.9508 33.1587 46.9122 31.4115 48.4579 29.6028Z" fill="url(#paint6_linear_50_198)"/>
<path d="M53.1115 10.9111C53.1041 10.8721 53.0967 10.8331 53.0892 10.7942C52.1165 17.806 48.797 20.8618 44.2226 23.5942C42.4897 24.6293 40.8704 25.4229 39.3337 26.0604C38.3556 26.9943 33.7096 29.1742 30.2051 30.6308L30.2045 30.631C29.4913 30.9274 28.7702 31.2271 28.048 31.5338C30.5253 30.7205 32.7579 30.2143 34.8851 29.7321C38.2336 28.9729 41.3208 28.273 44.6893 26.5275C51.7574 22.8649 53.6093 15.3384 53.1115 10.9111Z" fill="url(#paint7_linear_50_198)"/>
<path d="M53.1115 10.9111C53.1041 10.8721 53.0967 10.8331 53.0892 10.7942C52.1165 17.806 48.797 20.8618 44.2226 23.5942C42.4897 24.6293 40.8704 25.4229 39.3337 26.0604C38.3556 26.9943 33.7096 29.1742 30.2051 30.6308L30.2045 30.631C29.4913 30.9274 28.7702 31.2271 28.048 31.5338C30.5253 30.7205 32.7579 30.2143 34.8851 29.7321C38.2336 28.9729 41.3208 28.273 44.6893 26.5275C51.7574 22.8649 53.6093 15.3384 53.1115 10.9111Z" fill="url(#paint8_linear_50_198)"/>
</g>
<defs>
<linearGradient id="paint0_linear_50_198" x1="34.8226" y1="37.2609" x2="11.7559" y2="53.7942" gradientUnits="userSpaceOnUse">
<stop stop-color="#FE5004"/>
<stop offset="0.602538" stop-color="#FFB915"/>
<stop offset="1" stop-color="#FFFC41"/>
</linearGradient>
<linearGradient id="paint1_linear_50_198" x1="25.6893" y1="38.6609" x2="25.8226" y2="41.0609" gradientUnits="userSpaceOnUse">
<stop stop-color="#FD3E00"/>
<stop offset="1" stop-color="#FD4400" stop-opacity="0"/>
</linearGradient>
<linearGradient id="paint2_linear_50_198" x1="39.3559" y1="24.8608" x2="6.82258" y2="53.7942" gradientUnits="userSpaceOnUse">
<stop stop-color="#005FC6"/>
<stop offset="0.279756" stop-color="#23A4DF"/>
<stop offset="0.465158" stop-color="#3AC2B7"/>
<stop offset="0.640642" stop-color="#60EC7A"/>
<stop offset="0.818668" stop-color="#CFFDBD"/>
<stop offset="1" stop-color="#D0FCB6"/>
</linearGradient>
<linearGradient id="paint3_linear_50_198" x1="32.7559" y1="30.3942" x2="29.9559" y2="27.8608" gradientUnits="userSpaceOnUse">
<stop stop-color="#0061CB"/>
<stop offset="1" stop-color="#067EEA" stop-opacity="0"/>
</linearGradient>
<linearGradient id="paint4_linear_50_198" x1="53.2226" y1="10.8609" x2="10.4226" y2="54.7275" gradientUnits="userSpaceOnUse">
<stop stop-color="#8E55F1"/>
<stop offset="0.140795" stop-color="#8B48DF"/>
<stop offset="0.274905" stop-color="#E04DD9"/>
<stop offset="0.492309" stop-color="#F496C8"/>
<stop offset="0.633104" stop-color="#FAD2BA"/>
<stop offset="0.856964" stop-color="#FEF7E5"/>
<stop offset="1" stop-color="#FFF5BF"/>
</linearGradient>
<linearGradient id="paint5_linear_50_198" x1="49.0226" y1="29.1942" x2="14.0892" y2="44.9942" gradientUnits="userSpaceOnUse">
<stop stop-color="#F41A73"/>
<stop offset="0.399909" stop-color="#FC50A3"/>
<stop offset="0.584511" stop-color="#FE9485"/>
<stop offset="0.703104" stop-color="#FFAF88"/>
<stop offset="1" stop-color="#FFC385"/>
</linearGradient>
<linearGradient id="paint6_linear_50_198" x1="36.4226" y1="34.0609" x2="36.4892" y2="37.2609" gradientUnits="userSpaceOnUse">
<stop stop-color="#9B0008"/>
<stop offset="1" stop-color="#EA115A" stop-opacity="0"/>
</linearGradient>
<linearGradient id="paint7_linear_50_198" x1="53.2226" y1="14.4609" x2="21.6892" y2="35.0609" gradientUnits="userSpaceOnUse">
<stop stop-color="#231283"/>
<stop offset="0.362865" stop-color="#7053C6"/>
<stop offset="0.466353" stop-color="#7272DB"/>
<stop offset="0.634311" stop-color="#399EE9"/>
<stop offset="1" stop-color="#00CFFF"/>
</linearGradient>
<linearGradient id="paint8_linear_50_198" x1="45.3559" y1="24.8609" x2="46.7559" y2="26.6609" gradientUnits="userSpaceOnUse">
<stop stop-color="#3F259D" stop-opacity="0"/>
<stop offset="1" stop-color="#412DAA"/>
</linearGradient>
<clipPath id="clip0_50_198">
<rect width="64" height="64" fill="white" transform="translate(0.022583 0.86084)"/>
</clipPath>
</defs>
</svg>
