<svg width="24" height="24" viewBox="0 0 24 24" fill="none" xmlns="http://www.w3.org/2000/svg">
<path d="M21.4286 0H2.57143C1.15179 0 0 1.15179 0 2.57143V21.4286C0 22.8482 1.15179 24 2.57143 24H21.4286C22.8482 24 24 22.8482 24 21.4286V2.57143C24 1.15179 22.8482 0 21.4286 0ZM7.52143 15.4393H5.025C4.73036 15.4393 4.55893 15.1554 4.70357 14.8875L7.34464 10.2429C7.35 10.2429 7.35 10.2375 7.34464 10.2321L5.6625 7.33929C5.50179 7.03929 5.67321 6.79821 5.98393 6.79821H8.48036C8.75893 6.79821 8.98929 6.95357 9.17143 7.26429L10.8804 10.2268C10.8107 10.35 9.91607 11.925 8.19643 14.9518C8.00893 15.2839 7.78393 15.4393 7.52143 15.4393ZM19.2911 3.96964L13.7839 13.65V13.6607L17.2929 20.0357C17.4429 20.3089 17.2982 20.5768 16.9714 20.5768H14.475C14.1804 20.5768 13.9554 20.4214 13.7839 20.1107L10.2482 13.6661C10.3714 13.4464 12.2196 10.1893 15.7875 3.9C15.9643 3.58929 16.1839 3.43393 16.4571 3.43393H18.9696C19.275 3.42857 19.4411 3.68571 19.2911 3.96964Z" fill="#D6D6D6"/>
</svg>
