<svg width="87" height="21" viewBox="0 0 87 21" fill="none" xmlns="http://www.w3.org/2000/svg">
<path d="M10.832 6.536C10.32 6.12 9.808 5.816 9.296 5.624C8.784 5.416 8.288 5.312 7.808 5.312C7.2 5.312 6.704 5.456 6.32 5.744C5.936 6.032 5.744 6.408 5.744 6.872C5.744 7.192 5.84 7.456 6.032 7.664C6.224 7.872 6.472 8.056 6.776 8.216C7.096 8.36 7.448 8.488 7.832 8.6C8.232 8.712 8.624 8.832 9.008 8.96C10.544 9.472 11.664 10.16 12.368 11.024C13.088 11.872 13.448 12.984 13.448 14.36C13.448 15.288 13.288 16.128 12.968 16.88C12.664 17.632 12.208 18.28 11.6 18.824C11.008 19.352 10.272 19.76 9.392 20.048C8.528 20.352 7.544 20.504 6.44 20.504C4.152 20.504 2.032 19.824 0.08 18.464L2.096 14.672C2.8 15.296 3.496 15.76 4.184 16.064C4.872 16.368 5.552 16.52 6.224 16.52C6.992 16.52 7.56 16.344 7.928 15.992C8.312 15.64 8.504 15.24 8.504 14.792C8.504 14.52 8.456 14.288 8.36 14.096C8.264 13.888 8.104 13.704 7.88 13.544C7.656 13.368 7.36 13.208 6.992 13.064C6.64 12.92 6.208 12.76 5.696 12.584C5.088 12.392 4.488 12.184 3.896 11.96C3.32 11.72 2.8 11.408 2.336 11.024C1.888 10.64 1.52 10.16 1.232 9.584C0.96 8.992 0.824 8.248 0.824 7.352C0.824 6.456 0.968 5.648 1.256 4.928C1.56 4.192 1.976 3.568 2.504 3.056C3.048 2.528 3.704 2.12 4.472 1.832C5.256 1.544 6.128 1.4 7.088 1.4C7.984 1.4 8.92 1.528 9.896 1.784C10.872 2.024 11.808 2.384 12.704 2.864L10.832 6.536ZM21.086 11.312V20H16.742V11.312H15.302V7.688H16.742V3.992H21.086V7.688H23.558V11.312H21.086ZM29.4575 13.808C29.4575 14.208 29.5295 14.584 29.6735 14.936C29.8175 15.272 30.0095 15.568 30.2495 15.824C30.5055 16.08 30.8015 16.28 31.1375 16.424C31.4895 16.568 31.8655 16.64 32.2655 16.64C32.6495 16.64 33.0095 16.568 33.3455 16.424C33.6975 16.28 33.9935 16.08 34.2335 15.824C34.4895 15.568 34.6895 15.272 34.8335 14.936C34.9935 14.6 35.0735 14.24 35.0735 13.856C35.0735 13.472 34.9935 13.112 34.8335 12.776C34.6895 12.424 34.4895 12.12 34.2335 11.864C33.9935 11.608 33.6975 11.408 33.3455 11.264C33.0095 11.12 32.6495 11.048 32.2655 11.048C31.8655 11.048 31.4895 11.12 31.1375 11.264C30.8015 11.408 30.5055 11.608 30.2495 11.864C30.0095 12.12 29.8175 12.416 29.6735 12.752C29.5295 13.072 29.4575 13.424 29.4575 13.808ZM34.9295 7.688H39.2975V20H34.9295V18.632C34.0015 19.8 32.7455 20.384 31.1615 20.384C30.2655 20.384 29.4415 20.224 28.6895 19.904C27.9375 19.568 27.2815 19.104 26.7215 18.512C26.1615 17.92 25.7215 17.224 25.4015 16.424C25.0975 15.624 24.9455 14.752 24.9455 13.808C24.9455 12.928 25.0975 12.096 25.4015 11.312C25.7055 10.512 26.1295 9.816 26.6735 9.224C27.2175 8.632 27.8655 8.168 28.6175 7.832C29.3695 7.48 30.2015 7.304 31.1135 7.304C32.6495 7.304 33.9215 7.84 34.9295 8.912V7.688ZM46.2856 13.808C46.2856 14.208 46.3576 14.584 46.5016 14.936C46.6456 15.272 46.8376 15.568 47.0776 15.824C47.3336 16.08 47.6296 16.28 47.9656 16.424C48.3176 16.568 48.6936 16.64 49.0936 16.64C49.4776 16.64 49.8376 16.568 50.1736 16.424C50.5256 16.28 50.8216 16.08 51.0616 15.824C51.3176 15.568 51.5176 15.272 51.6616 14.936C51.8216 14.6 51.9016 14.24 51.9016 13.856C51.9016 13.472 51.8216 13.112 51.6616 12.776C51.5176 12.424 51.3176 12.12 51.0616 11.864C50.8216 11.608 50.5256 11.408 50.1736 11.264C49.8376 11.12 49.4776 11.048 49.0936 11.048C48.6936 11.048 48.3176 11.12 47.9656 11.264C47.6296 11.408 47.3336 11.608 47.0776 11.864C46.8376 12.12 46.6456 12.416 46.5016 12.752C46.3576 13.072 46.2856 13.424 46.2856 13.808ZM51.7576 7.688H56.1256V20H51.7576V18.632C50.8296 19.8 49.5736 20.384 47.9896 20.384C47.0936 20.384 46.2696 20.224 45.5176 19.904C44.7656 19.568 44.1096 19.104 43.5496 18.512C42.9896 17.92 42.5496 17.224 42.2296 16.424C41.9256 15.624 41.7736 14.752 41.7736 13.808C41.7736 12.928 41.9256 12.096 42.2296 11.312C42.5336 10.512 42.9576 9.816 43.5016 9.224C44.0456 8.632 44.6936 8.168 45.4456 7.832C46.1976 7.48 47.0296 7.304 47.9416 7.304C49.4776 7.304 50.7496 7.84 51.7576 8.912V7.688ZM68.3698 11.672C67.6178 11.16 66.8578 10.904 66.0898 10.904C65.6738 10.904 65.2818 10.976 64.9138 11.12C64.5618 11.264 64.2498 11.472 63.9778 11.744C63.7058 12 63.4898 12.312 63.3298 12.68C63.1858 13.032 63.1138 13.432 63.1138 13.88C63.1138 14.312 63.1858 14.712 63.3298 15.08C63.4898 15.432 63.6978 15.744 63.9538 16.016C64.2258 16.272 64.5458 16.472 64.9138 16.616C65.2818 16.76 65.6738 16.832 66.0898 16.832C66.9058 16.832 67.6658 16.552 68.3698 15.992V19.688C67.2978 20.152 66.2818 20.384 65.3218 20.384C64.4258 20.384 63.5698 20.232 62.7538 19.928C61.9538 19.624 61.2418 19.192 60.6178 18.632C60.0098 18.056 59.5218 17.376 59.1538 16.592C58.7858 15.792 58.6018 14.904 58.6018 13.928C58.6018 12.952 58.7778 12.064 59.1298 11.264C59.4818 10.448 59.9618 9.752 60.5698 9.176C61.1778 8.584 61.8978 8.128 62.7298 7.808C63.5778 7.472 64.4818 7.304 65.4418 7.304C66.4978 7.304 67.4738 7.528 68.3698 7.976V11.672ZM75.8008 0.079999V12.128L80.3608 7.688H86.3128L80.1448 13.376L86.6728 20H80.5768L75.8008 14.984V20H71.4568V0.079999H75.8008Z" fill="white"/>
</svg>
