<svg width="300" height="325" viewBox="0 0 300 325" fill="none" xmlns="http://www.w3.org/2000/svg">
<path opacity="0.65" fill-rule="evenodd" clip-rule="evenodd" d="M275.824 97.6732C288.316 91.1782 297.37 78.6877 298.825 63.63C301.11 39.9877 283.797 18.9695 260.155 16.6845C244.995 15.2193 230.915 21.8118 222.16 32.9638C215.562 29.8297 208.181 27.1247 199.916 24.9904C188.937 22.1231 178.469 20.4278 168.497 19.8458C158.6 18.5081 148.004 18.1676 136.682 18.879C100.584 21.0486 78.0804 36.3096 63.7979 52.6394C61.3017 51.5575 58.5962 50.8418 55.7422 50.566C41.0677 49.1477 28.0219 59.8939 26.6036 74.5684C25.6494 84.4409 30.201 93.5761 37.7505 98.9296C19.7276 143.405 4.63602 210.655 1.21538 244.736C0.356994 254.111 0.199086 261.27 1.36825 264.341C7.86922 283.046 40.5642 282.523 45.1262 269.772C51.5403 319.888 119.004 328.444 141.739 296.745C157.982 332.211 225.835 336.733 241.728 288.774C243.764 302.162 275.754 308.937 285.716 291.824C287.452 289.033 288.668 281.976 289.621 272.61C293.005 236.199 290.573 160.134 279.726 113.268C279.567 112.585 279.4 111.849 279.222 111.063L279.222 111.06L279.222 111.059L279.221 111.058C278.413 107.488 277.372 102.895 275.824 97.6732ZM73.924 16.5644C73.1361 24.7169 65.8884 30.6871 57.7359 29.8991C49.5834 29.1112 43.6133 21.8635 44.4012 13.711C45.1892 5.55851 52.4368 -0.411642 60.5893 0.376304C68.7418 1.16425 74.712 8.41191 73.924 16.5644ZM169.439 148.444C171.344 149.049 172.349 151.134 170.934 152.545C169.666 153.81 168.027 154.869 166.496 155.858C165.985 156.188 165.486 156.51 165.017 156.83C162.16 158.777 158.732 159.71 155.282 159.479C151.833 159.248 148.56 157.867 145.987 155.557C145.61 155.219 145.21 154.873 144.801 154.518C143.372 153.283 141.823 151.943 140.701 150.444C139.503 148.844 140.778 146.915 142.746 146.568C144.714 146.222 146.987 147.463 148.63 148.601C148.843 148.749 149.059 148.894 149.271 149.036C149.849 149.424 150.404 149.797 150.823 150.173C152.191 151.401 153.931 152.135 155.765 152.258C157.6 152.381 159.422 151.885 160.941 150.849C161.422 150.522 162.047 150.227 162.696 149.921L162.696 149.921C162.898 149.826 163.102 149.729 163.305 149.631C165.102 148.756 167.534 147.839 169.439 148.444ZM145.253 97.3732C154.19 101.544 156.983 113.159 148.275 117.788C144.837 119.616 141.463 118.793 137.906 117.925C135.655 117.376 133.331 116.809 130.871 116.884C128.481 116.958 125.988 117.637 123.499 118.316C119.377 119.439 115.269 120.558 111.671 118.915C102.666 115.894 104.856 103.124 113.516 98.4882C113.516 98.4882 118.827 94.8212 129.511 94.181C137.524 93.7009 145.253 97.3732 145.253 97.3732ZM210.713 109.545C217.934 116.261 217.02 128.172 207.311 129.9C203.477 130.582 200.52 128.762 197.403 126.842C195.43 125.627 193.392 124.373 191.028 123.689C188.732 123.024 186.15 122.904 183.573 122.784C179.306 122.585 175.053 122.387 172.134 119.718C164.494 114.074 170.504 102.596 180.17 100.848C180.17 100.848 186.351 98.9911 196.714 101.667C204.487 103.674 210.713 109.545 210.713 109.545Z" fill="url(#paint0_linear_591_1728)"/>
<defs>
<linearGradient id="paint0_linear_591_1728" x1="169.652" y1="7.93732" x2="139.546" y2="319.425" gradientUnits="userSpaceOnUse">
<stop offset="0.640625" stop-color="white"/>
<stop offset="1" stop-color="#B9B9B9"/>
</linearGradient>
</defs>
</svg>
